<svg xmlns="http://www.w3.org/2000/svg" xmlns:xlink="http://www.w3.org/1999/xlink" id="processonSvg1000" viewBox="122.0 103.0 786.0 795.1620370370368" width="786.0" height="795.1620370370368"><defs id="ProcessOnDefs1001"><marker id="ProcessOnMarker1036" markerUnits="userSpaceOnUse" orient="auto" markerWidth="16.23606797749979" markerHeight="10.550836550532098" viewBox="-1.0 -1.3763819204711736 16.23606797749979 10.550836550532098" refX="-1.0" refY="3.8990363547948754"><path id="ProcessOnPath1037" d="M12.0 3.8990363547948754L0.0 7.798072709589751V0.0Z" stroke="#323232" stroke-width="2.0" fill="#323232" transform="matrix(1.0,0.0,0.0,1.0,0.0,0.0)"/></marker><marker id="ProcessOnMarker1040" markerUnits="userSpaceOnUse" orient="auto" markerWidth="16.23606797749979" markerHeight="10.550836550532098" viewBox="-1.0 -1.3763819204711736 16.23606797749979 10.550836550532098" refX="-1.0" refY="3.8990363547948754"><path id="ProcessOnPath1041" d="M12.0 3.8990363547948754L0.0 7.798072709589751V0.0Z" stroke="#323232" stroke-width="2.0" fill="#323232" transform="matrix(1.0,0.0,0.0,1.0,0.0,0.0)"/></marker><marker id="ProcessOnMarker1059" markerUnits="userSpaceOnUse" orient="auto" markerWidth="16.23606797749979" markerHeight="10.550836550532098" viewBox="-1.0 -1.3763819204711736 16.23606797749979 10.550836550532098" refX="-1.0" refY="3.8990363547948754"><path id="ProcessOnPath1060" d="M12.0 3.8990363547948754L0.0 7.798072709589751V0.0Z" stroke="#323232" stroke-width="2.0" fill="#323232" transform="matrix(1.0,0.0,0.0,1.0,0.0,0.0)"/></marker><marker id="ProcessOnMarker1063" markerUnits="userSpaceOnUse" orient="auto" markerWidth="16.23606797749979" markerHeight="10.550836550532098" viewBox="-1.0 -1.3763819204711736 16.23606797749979 10.550836550532098" refX="-1.0" refY="3.8990363547948754"><path id="ProcessOnPath1064" d="M12.0 3.8990363547948754L0.0 7.798072709589751V0.0Z" stroke="#323232" stroke-width="2.0" fill="#323232" transform="matrix(1.0,0.0,0.0,1.0,0.0,0.0)"/></marker><marker id="ProcessOnMarker1067" markerUnits="userSpaceOnUse" orient="auto" markerWidth="16.23606797749979" markerHeight="10.550836550532098" viewBox="-1.0 -1.3763819204711736 16.23606797749979 10.550836550532098" refX="-1.0" refY="3.8990363547948754"><path id="ProcessOnPath1068" d="M12.0 3.8990363547948754L0.0 7.798072709589751V0.0Z" stroke="#323232" stroke-width="2.0" fill="#323232" transform="matrix(1.0,0.0,0.0,1.0,0.0,0.0)"/></marker><marker id="ProcessOnMarker1081" markerUnits="userSpaceOnUse" orient="auto" markerWidth="16.23606797749979" markerHeight="10.550836550532098" viewBox="-1.0 -1.3763819204711736 16.23606797749979 10.550836550532098" refX="-1.0" refY="3.8990363547948754"><path id="ProcessOnPath1082" d="M12.0 3.8990363547948754L0.0 7.798072709589751V0.0Z" stroke="#323232" stroke-width="2.0" fill="#323232" transform="matrix(1.0,0.0,0.0,1.0,0.0,0.0)"/></marker><marker id="ProcessOnMarker1085" markerUnits="userSpaceOnUse" orient="auto" markerWidth="16.23606797749979" markerHeight="10.550836550532098" viewBox="-1.0 -1.3763819204711736 16.23606797749979 10.550836550532098" refX="-1.0" refY="3.8990363547948754"><path id="ProcessOnPath1086" d="M12.0 3.8990363547948754L0.0 7.798072709589751V0.0Z" stroke="#323232" stroke-width="2.0" fill="#323232" transform="matrix(1.0,0.0,0.0,1.0,0.0,0.0)"/></marker><marker id="ProcessOnMarker1097" markerUnits="userSpaceOnUse" orient="auto" markerWidth="16.23606797749979" markerHeight="10.550836550532098" viewBox="-1.0 -1.3763819204711736 16.23606797749979 10.550836550532098" refX="-1.0" refY="3.8990363547948754"><path id="ProcessOnPath1098" d="M12.0 3.8990363547948754L0.0 7.798072709589751V0.0Z" stroke="#323232" stroke-width="2.0" fill="#323232" transform="matrix(1.0,0.0,0.0,1.0,0.0,0.0)"/></marker><marker id="ProcessOnMarker1104" markerUnits="userSpaceOnUse" orient="auto" markerWidth="16.23606797749979" markerHeight="10.550836550532098" viewBox="-1.0 -1.3763819204711736 16.23606797749979 10.550836550532098" refX="-1.0" refY="3.8990363547948754"><path id="ProcessOnPath1105" d="M12.0 3.8990363547948754L0.0 7.798072709589751V0.0Z" stroke="#323232" stroke-width="2.0" fill="#323232" transform="matrix(1.0,0.0,0.0,1.0,0.0,0.0)"/></marker><marker id="ProcessOnMarker1111" markerUnits="userSpaceOnUse" orient="auto" markerWidth="16.23606797749979" markerHeight="10.550836550532098" viewBox="-1.0 -1.3763819204711736 16.23606797749979 10.550836550532098" refX="-1.0" refY="3.8990363547948754"><path id="ProcessOnPath1112" d="M12.0 3.8990363547948754L0.0 7.798072709589751V0.0Z" stroke="#323232" stroke-width="2.0" fill="#323232" transform="matrix(1.0,0.0,0.0,1.0,0.0,0.0)"/></marker><marker id="ProcessOnMarker1134" markerUnits="userSpaceOnUse" orient="auto" markerWidth="16.23606797749979" markerHeight="10.550836550532098" viewBox="-1.0 -1.3763819204711736 16.23606797749979 10.550836550532098" refX="-1.0" refY="3.8990363547948754"><path id="ProcessOnPath1135" d="M12.0 3.8990363547948754L0.0 7.798072709589751V0.0Z" stroke="#323232" stroke-width="2.0" fill="#323232" transform="matrix(1.0,0.0,0.0,1.0,0.0,0.0)"/></marker><marker id="ProcessOnMarker1138" markerUnits="userSpaceOnUse" orient="auto" markerWidth="16.23606797749979" markerHeight="10.550836550532098" viewBox="-1.0 -1.3763819204711736 16.23606797749979 10.550836550532098" refX="-1.0" refY="3.8990363547948754"><path id="ProcessOnPath1139" d="M12.0 3.8990363547948754L0.0 7.798072709589751V0.0Z" stroke="#323232" stroke-width="2.0" fill="#323232" transform="matrix(1.0,0.0,0.0,1.0,0.0,0.0)"/></marker><marker id="ProcessOnMarker1151" markerUnits="userSpaceOnUse" orient="auto" markerWidth="16.23606797749979" markerHeight="10.550836550532098" viewBox="-1.0 -1.3763819204711736 16.23606797749979 10.550836550532098" refX="-1.0" refY="3.8990363547948754"><path id="ProcessOnPath1152" d="M12.0 3.8990363547948754L0.0 7.798072709589751V0.0Z" stroke="#323232" stroke-width="2.0" fill="#323232" transform="matrix(1.0,0.0,0.0,1.0,0.0,0.0)"/></marker><marker id="ProcessOnMarker1155" markerUnits="userSpaceOnUse" orient="auto" markerWidth="16.23606797749979" markerHeight="10.550836550532098" viewBox="-1.0 -1.3763819204711736 16.23606797749979 10.550836550532098" refX="-1.0" refY="3.8990363547948754"><path id="ProcessOnPath1156" d="M12.0 3.8990363547948754L0.0 7.798072709589751V0.0Z" stroke="#323232" stroke-width="2.0" fill="#323232" transform="matrix(1.0,0.0,0.0,1.0,0.0,0.0)"/></marker><marker id="ProcessOnMarker1159" markerUnits="userSpaceOnUse" orient="auto" markerWidth="16.23606797749979" markerHeight="10.550836550532098" viewBox="-1.0 -1.3763819204711736 16.23606797749979 10.550836550532098" refX="-1.0" refY="3.8990363547948754"><path id="ProcessOnPath1160" d="M12.0 3.8990363547948754L0.0 7.798072709589751V0.0Z" stroke="#323232" stroke-width="2.0" fill="#323232" transform="matrix(1.0,0.0,0.0,1.0,0.0,0.0)"/></marker><marker id="ProcessOnMarker1171" markerUnits="userSpaceOnUse" orient="auto" markerWidth="16.23606797749979" markerHeight="10.550836550532098" viewBox="-1.0 -1.3763819204711736 16.23606797749979 10.550836550532098" refX="-1.0" refY="3.8990363547948754"><path id="ProcessOnPath1172" d="M12.0 3.8990363547948754L0.0 7.798072709589751V0.0Z" stroke="#323232" stroke-width="2.0" fill="#323232" transform="matrix(1.0,0.0,0.0,1.0,0.0,0.0)"/></marker><marker id="ProcessOnMarker1175" markerUnits="userSpaceOnUse" orient="auto" markerWidth="16.23606797749979" markerHeight="10.550836550532098" viewBox="-1.0 -1.3763819204711736 16.23606797749979 10.550836550532098" refX="-1.0" refY="3.8990363547948754"><path id="ProcessOnPath1176" d="M12.0 3.8990363547948754L0.0 7.798072709589751V0.0Z" stroke="#323232" stroke-width="2.0" fill="#323232" transform="matrix(1.0,0.0,0.0,1.0,0.0,0.0)"/></marker><marker id="ProcessOnMarker1187" markerUnits="userSpaceOnUse" orient="auto" markerWidth="16.23606797749979" markerHeight="10.550836550532098" viewBox="-1.0 -1.3763819204711736 16.23606797749979 10.550836550532098" refX="-1.0" refY="3.8990363547948754"><path id="ProcessOnPath1188" d="M12.0 3.8990363547948754L0.0 7.798072709589751V0.0Z" stroke="#323232" stroke-width="2.0" fill="#323232" transform="matrix(1.0,0.0,0.0,1.0,0.0,0.0)"/></marker><marker id="ProcessOnMarker1194" markerUnits="userSpaceOnUse" orient="auto" markerWidth="16.23606797749979" markerHeight="10.550836550532098" viewBox="-1.0 -1.3763819204711736 16.23606797749979 10.550836550532098" refX="-1.0" refY="3.8990363547948754"><path id="ProcessOnPath1195" d="M12.0 3.8990363547948754L0.0 7.798072709589751V0.0Z" stroke="#323232" stroke-width="2.0" fill="#323232" transform="matrix(1.0,0.0,0.0,1.0,0.0,0.0)"/></marker><marker id="ProcessOnMarker1198" markerUnits="userSpaceOnUse" orient="auto" markerWidth="16.23606797749979" markerHeight="10.550836550532098" viewBox="-1.0 -1.3763819204711736 16.23606797749979 10.550836550532098" refX="-1.0" refY="3.8990363547948754"><path id="ProcessOnPath1199" d="M12.0 3.8990363547948754L0.0 7.798072709589751V0.0Z" stroke="#323232" stroke-width="2.0" fill="#323232" transform="matrix(1.0,0.0,0.0,1.0,0.0,0.0)"/></marker><marker id="ProcessOnMarker1202" markerUnits="userSpaceOnUse" orient="auto" markerWidth="16.23606797749979" markerHeight="10.550836550532098" viewBox="-1.0 -1.3763819204711736 16.23606797749979 10.550836550532098" refX="-1.0" refY="3.8990363547948754"><path id="ProcessOnPath1203" d="M12.0 3.8990363547948754L0.0 7.798072709589751V0.0Z" stroke="#323232" stroke-width="2.0" fill="#323232" transform="matrix(1.0,0.0,0.0,1.0,0.0,0.0)"/></marker><marker id="ProcessOnMarker1214" markerUnits="userSpaceOnUse" orient="auto" markerWidth="16.23606797749979" markerHeight="10.550836550532098" viewBox="-1.0 -1.3763819204711736 16.23606797749979 10.550836550532098" refX="-1.0" refY="3.8990363547948754"><path id="ProcessOnPath1215" d="M12.0 3.8990363547948754L0.0 7.798072709589751V0.0Z" stroke="#323232" stroke-width="2.0" fill="#323232" transform="matrix(1.0,0.0,0.0,1.0,0.0,0.0)"/></marker><marker id="ProcessOnMarker1218" markerUnits="userSpaceOnUse" orient="auto" markerWidth="16.23606797749979" markerHeight="10.550836550532098" viewBox="-1.0 -1.3763819204711736 16.23606797749979 10.550836550532098" refX="-1.0" refY="3.8990363547948754"><path id="ProcessOnPath1219" d="M12.0 3.8990363547948754L0.0 7.798072709589751V0.0Z" stroke="#323232" stroke-width="2.0" fill="#323232" transform="matrix(1.0,0.0,0.0,1.0,0.0,0.0)"/></marker><marker id="ProcessOnMarker1230" markerUnits="userSpaceOnUse" orient="auto" markerWidth="16.23606797749979" markerHeight="10.550836550532098" viewBox="-1.0 -1.3763819204711736 16.23606797749979 10.550836550532098" refX="-1.0" refY="3.8990363547948754"><path id="ProcessOnPath1231" d="M12.0 3.8990363547948754L0.0 7.798072709589751V0.0Z" stroke="#323232" stroke-width="2.0" fill="#323232" transform="matrix(1.0,0.0,0.0,1.0,0.0,0.0)"/></marker><marker id="ProcessOnMarker1237" markerUnits="userSpaceOnUse" orient="auto" markerWidth="16.23606797749979" markerHeight="10.550836550532098" viewBox="-1.0 -1.3763819204711736 16.23606797749979 10.550836550532098" refX="-1.0" refY="3.8990363547948754"><path id="ProcessOnPath1238" d="M12.0 3.8990363547948754L0.0 7.798072709589751V0.0Z" stroke="#323232" stroke-width="2.0" fill="#323232" transform="matrix(1.0,0.0,0.0,1.0,0.0,0.0)"/></marker><marker id="ProcessOnMarker1254" markerUnits="userSpaceOnUse" orient="auto" markerWidth="16.23606797749979" markerHeight="10.550836550532098" viewBox="-1.0 -1.3763819204711736 16.23606797749979 10.550836550532098" refX="-1.0" refY="3.8990363547948754"><path id="ProcessOnPath1255" d="M12.0 3.8990363547948754L0.0 7.798072709589751V0.0Z" stroke="#323232" stroke-width="2.0" fill="#323232" transform="matrix(1.0,0.0,0.0,1.0,0.0,0.0)"/></marker><marker id="ProcessOnMarker1266" markerUnits="userSpaceOnUse" orient="auto" markerWidth="16.23606797749979" markerHeight="10.550836550532098" viewBox="-1.0 -1.3763819204711736 16.23606797749979 10.550836550532098" refX="-1.0" refY="3.8990363547948754"><path id="ProcessOnPath1267" d="M12.0 3.8990363547948754L0.0 7.798072709589751V0.0Z" stroke="#323232" stroke-width="2.0" fill="#323232" transform="matrix(1.0,0.0,0.0,1.0,0.0,0.0)"/></marker><marker id="ProcessOnMarker1273" markerUnits="userSpaceOnUse" orient="auto" markerWidth="16.23606797749979" markerHeight="10.550836550532098" viewBox="-1.0 -1.3763819204711736 16.23606797749979 10.550836550532098" refX="-1.0" refY="3.8990363547948754"><path id="ProcessOnPath1274" d="M12.0 3.8990363547948754L0.0 7.798072709589751V0.0Z" stroke="#323232" stroke-width="2.0" fill="#323232" transform="matrix(1.0,0.0,0.0,1.0,0.0,0.0)"/></marker><marker id="ProcessOnMarker1280" markerUnits="userSpaceOnUse" orient="auto" markerWidth="16.23606797749979" markerHeight="10.550836550532098" viewBox="-1.0 -1.3763819204711736 16.23606797749979 10.550836550532098" refX="-1.0" refY="3.8990363547948754"><path id="ProcessOnPath1281" d="M12.0 3.8990363547948754L0.0 7.798072709589751V0.0Z" stroke="#323232" stroke-width="2.0" fill="#323232" transform="matrix(1.0,0.0,0.0,1.0,0.0,0.0)"/></marker></defs><g id="ProcessOnG1002"><path id="ProcessOnPath1003" d="M122.0 103.0H908.0V898.1620370370368H122.0V103.0Z" fill="none"/><g id="ProcessOnG1004"><g id="ProcessOnG1005" transform="matrix(1.0,0.0,0.0,1.0,208.63733333333334,186.97037037037038)" opacity="1.0"><path id="ProcessOnPath1006" d="M11.343209876543208 0.0L88.12345679012348 0.0C103.24773662551443 0.0 103.24773662551443 34.029629629629625 88.12345679012348 34.029629629629625L11.343209876543208 34.029629629629625C-3.781069958847736 34.029629629629625 -3.781069958847736 0.0 11.343209876543208 0.0Z" stroke="#323232" stroke-width="2.0" stroke-dasharray="none" opacity="1.0" fill="#ffffff"/><g id="ProcessOnG1007" transform="matrix(1.0,0.0,0.0,1.0,10.0,8.889814814814812)"><text id="ProcessOnText1008" fill="#000000" font-size="13" x="38.73333333333335" y="13.325" font-family="微软雅黑" font-weight="normal" font-style="normal" text-decoration="none" family="微软雅黑" text-anchor="middle" size="13">开始</text></g></g><g id="ProcessOnG1009" transform="matrix(1.0,0.0,0.0,1.0,205.15600000000006,242.59629629629626)" opacity="1.0"><path id="ProcessOnPath1010" d="M10.801234567901247 0.0L106.42933333333332 0.0L95.62809876543207 32.40370370370374L0.0 32.40370370370374L10.801234567901247 0.0Z" stroke="#323232" stroke-width="2.0" stroke-dasharray="none" opacity="1.0" fill="#ffffff"/><g id="ProcessOnG1011" transform="matrix(1.0,0.0,0.0,1.0,15.964399999999998,-0.04814814814812962)"><text id="ProcessOnText1012" fill="#000000" font-size="13" x="36.25026666666666" y="13.325" font-family="微软雅黑" font-weight="normal" font-style="normal" text-decoration="none" family="微软雅黑" text-anchor="middle" size="13">按下手指 </text><text id="ProcessOnText1013" fill="#000000" font-size="13" x="36.25026666666666" y="29.575" font-family="微软雅黑" font-weight="normal" font-style="normal" text-decoration="none" family="微软雅黑" text-anchor="middle" size="13">down</text></g></g><g id="ProcessOnG1014" transform="matrix(1.0,0.0,0.0,1.0,184.76533333333336,300.18703703703704)" opacity="1.0"><path id="ProcessOnPath1015" d="M0.0 0.0L147.21066666666667 0.0L147.21066666666667 54.86481481481482L0.0 54.86481481481482Z" stroke="#323232" stroke-width="2.0" stroke-dasharray="none" opacity="1.0" fill="#ffffff"/><g id="ProcessOnG1016" transform="matrix(1.0,0.0,0.0,1.0,10.0,11.18240740740741)"><text id="ProcessOnText1017" fill="#000000" font-size="13" x="62.605333333333334" y="13.325" font-family="微软雅黑" font-weight="normal" font-style="normal" text-decoration="none" family="微软雅黑" text-anchor="middle" size="13">dispatchTouchEvent</text><text id="ProcessOnText1018" fill="#000000" font-size="13" x="62.605333333333334" y="29.575" font-family="微软雅黑" font-weight="normal" font-style="normal" text-decoration="none" family="微软雅黑" text-anchor="middle" size="13">分发 down事件</text></g></g><g id="ProcessOnG1019" transform="matrix(1.0,0.0,0.0,1.0,142.0,123.0)" opacity="1.0"><path id="ProcessOnPath1020" d="M0.0 0.0L248.66666666666666 0.0L248.66666666666666 716.0L0.0 716.0Z" stroke="#323232" stroke-width="2.0" stroke-dasharray="none" opacity="1.0" fill="none"/><path id="ProcessOnPath1021" d="M0.0 0.0L248.66666666666666 0.0L248.66666666666666 40.0L0.0 40.0Z" stroke="#323232" stroke-width="2.0" stroke-dasharray="none" opacity="1.0" fill="#ffffff"/><g id="ProcessOnG1022" transform="matrix(1.0,0.0,0.0,1.0,10.0,10.0)"><text id="ProcessOnText1023" fill="#000000" font-size="16" x="113.33333333333333" y="16.4" font-family="微软雅黑" font-weight="normal" font-style="normal" text-decoration="none" family="微软雅黑" text-anchor="middle" size="16">Activity</text></g></g><g id="ProcessOnG1024" transform="matrix(1.0,0.0,0.0,1.0,390.6666666666667,123.0)" opacity="1.0"><path id="ProcessOnPath1025" d="M0.0 0.0L248.66666666666666 0.0L248.66666666666666 716.0L0.0 716.0Z" stroke="#323232" stroke-width="2.0" stroke-dasharray="none" opacity="1.0" fill="none"/><path id="ProcessOnPath1026" d="M0.0 0.0L248.66666666666666 0.0L248.66666666666666 40.0L0.0 40.0Z" stroke="#323232" stroke-width="2.0" stroke-dasharray="none" opacity="1.0" fill="#ffffff"/><g id="ProcessOnG1027" transform="matrix(1.0,0.0,0.0,1.0,10.0,10.0)"><text id="ProcessOnText1028" fill="#000000" font-size="16" x="113.33333333333333" y="16.4" font-family="微软雅黑" font-weight="normal" font-style="normal" text-decoration="none" family="微软雅黑" text-anchor="middle" size="16">ViewGroup</text></g></g><g id="ProcessOnG1029" transform="matrix(1.0,0.0,0.0,1.0,639.3333333333334,123.0)" opacity="1.0"><path id="ProcessOnPath1030" d="M0.0 0.0L248.66666666666666 0.0L248.66666666666666 716.0L0.0 716.0Z" stroke="#323232" stroke-width="2.0" stroke-dasharray="none" opacity="1.0" fill="none"/><path id="ProcessOnPath1031" d="M0.0 0.0L248.66666666666666 0.0L248.66666666666666 40.0L0.0 40.0Z" stroke="#323232" stroke-width="2.0" stroke-dasharray="none" opacity="1.0" fill="#ffffff"/><g id="ProcessOnG1032" transform="matrix(1.0,0.0,0.0,1.0,10.0,10.0)"><text id="ProcessOnText1033" fill="#000000" font-size="16" x="113.33333333333333" y="16.4" font-family="微软雅黑" font-weight="normal" font-style="normal" text-decoration="none" family="微软雅黑" text-anchor="middle" size="16">View</text></g></g><g id="ProcessOnG1034"><path id="ProcessOnPath1035" d="M258.3706666666667 221.0L258.3706666666667 231.79814814814813L258.3706666666667 231.79814814814813L258.3706666666667 232.79814814814813" stroke="#323232" stroke-width="2.0" stroke-dasharray="none" fill="none" marker-end="url(#ProcessOnMarker1036)"/></g><g id="ProcessOnG1038"><path id="ProcessOnPath1039" d="M258.3706666666667 275.0L258.3706666666667 287.5935185185185L258.3706666666667 287.5935185185185L258.3706666666667 288.5935185185185" stroke="#323232" stroke-width="2.0" stroke-dasharray="none" fill="none" marker-end="url(#ProcessOnMarker1040)"/></g><g id="ProcessOnG1042" transform="matrix(1.0,0.0,0.0,1.0,441.39466666666675,203.18703703703704)" opacity="1.0"><path id="ProcessOnPath1043" d="M0.0 0.0L147.21066666666667 0.0L147.21066666666667 54.86481481481482L0.0 54.86481481481482Z" stroke="#323232" stroke-width="2.0" stroke-dasharray="none" opacity="1.0" fill="#ffffff"/><g id="ProcessOnG1044" transform="matrix(1.0,0.0,0.0,1.0,10.0,11.18240740740741)"><text id="ProcessOnText1045" fill="#000000" font-size="13" x="62.605333333333334" y="13.325" font-family="微软雅黑" font-weight="normal" font-style="normal" text-decoration="none" family="微软雅黑" text-anchor="middle" size="13">dispatchTouchEvent</text><text id="ProcessOnText1046" fill="#000000" font-size="13" x="62.605333333333334" y="29.575" font-family="微软雅黑" font-weight="normal" font-style="normal" text-decoration="none" family="微软雅黑" text-anchor="middle" size="13">分发事件</text></g></g><g id="ProcessOnG1047" transform="matrix(1.0,0.0,0.0,1.0,432.94,280.3296296296296)" opacity="1.0"><path id="ProcessOnPath1048" d="M0.0 0.0L164.12 0.0L164.12 54.86481481481482L0.0 54.86481481481482Z" stroke="#323232" stroke-width="2.0" stroke-dasharray="none" opacity="1.0" fill="#ffffff"/><g id="ProcessOnG1049" transform="matrix(1.0,0.0,0.0,1.0,10.0,3.0574074074074105)"><text id="ProcessOnText1050" fill="#000000" font-size="13" x="71.06" y="13.325" font-family="微软雅黑" font-weight="normal" font-style="normal" text-decoration="none" family="微软雅黑" text-anchor="middle" size="13">onInterceptTouchEven</text><text id="ProcessOnText1051" fill="#000000" font-size="13" x="71.06" y="29.575" font-family="微软雅黑" font-weight="normal" font-style="normal" text-decoration="none" family="微软雅黑" text-anchor="middle" size="13">t</text><text id="ProcessOnText1052" fill="#000000" font-size="13" x="71.06" y="45.825" font-family="微软雅黑" font-weight="normal" font-style="normal" text-decoration="none" family="微软雅黑" text-anchor="middle" size="13">拦截 事件</text></g></g><g id="ProcessOnG1053" transform="matrix(1.0,0.0,0.0,1.0,470.23999999999984,358.399074074074)" opacity="1.0"><path id="ProcessOnPath1054" d="M0.0 24.677777777777806L44.76000000000005 0.0L89.5200000000001 24.677777777777806L44.76000000000005 49.35555555555561L0.0 24.677777777777806Z" stroke="#323232" stroke-width="2.0" stroke-dasharray="none" opacity="1.0" fill="#ffffff"/><g id="ProcessOnG1055" transform="matrix(1.0,0.0,0.0,1.0,10.0,16.552777777777806)"><text id="ProcessOnText1056" fill="#000000" font-size="13" x="33.76000000000005" y="13.325" font-family="微软雅黑" font-weight="normal" font-style="normal" text-decoration="none" family="微软雅黑" text-anchor="middle" size="13">拦截</text></g></g><g id="ProcessOnG1057"><path id="ProcessOnPath1058" d="M331.976 327.61944444444447L371.68533333333335 327.61944444444447L371.68533333333335 230.61944444444447L426.158598689167 230.61944444444447" stroke="#323232" stroke-width="2.0" stroke-dasharray="none" fill="none" marker-end="url(#ProcessOnMarker1059)"/></g><g id="ProcessOnG1061"><path id="ProcessOnPath1062" d="M515.0 258.0518518518519L515.0 269.19074074074075L515.0000000000002 269.19074074074075L515.0000000000002 270.19074074074075" stroke="#323232" stroke-width="2.0" stroke-dasharray="none" fill="none" marker-end="url(#ProcessOnMarker1063)"/></g><g id="ProcessOnG1065"><path id="ProcessOnPath1066" d="M515.0000000000002 335.19444444444446L515.0000000000002 346.79675925925926L515.0 346.79675925925926L515.0 347.79675925925926" stroke="#323232" stroke-width="2.0" stroke-dasharray="none" fill="none" marker-end="url(#ProcessOnMarker1067)"/></g><g id="ProcessOnG1069" transform="matrix(1.0,0.0,0.0,1.0,709.8153333333336,355.0518518518519)" opacity="1.0"><path id="ProcessOnPath1070" d="M0.0 0.0L147.21066666666667 0.0L147.21066666666667 54.86481481481482L0.0 54.86481481481482Z" stroke="#323232" stroke-width="2.0" stroke-dasharray="none" opacity="1.0" fill="#ffffff"/><g id="ProcessOnG1071" transform="matrix(1.0,0.0,0.0,1.0,10.0,11.18240740740741)"><text id="ProcessOnText1072" fill="#000000" font-size="13" x="62.605333333333334" y="13.325" font-family="微软雅黑" font-weight="normal" font-style="normal" text-decoration="none" family="微软雅黑" text-anchor="middle" size="13">dispatchTouchEvent</text><text id="ProcessOnText1073" fill="#000000" font-size="13" x="62.605333333333334" y="29.575" font-family="微软雅黑" font-weight="normal" font-style="normal" text-decoration="none" family="微软雅黑" text-anchor="middle" size="13">分发事件</text></g></g><g id="ProcessOnG1074" transform="matrix(1.0,0.0,0.0,1.0,701.3606666666668,445.949074074074)" opacity="1.0"><path id="ProcessOnPath1075" d="M0.0 0.0L164.12 0.0L164.12 54.86481481481482L0.0 54.86481481481482Z" stroke="#323232" stroke-width="2.0" stroke-dasharray="none" opacity="1.0" fill="#ffffff"/><g id="ProcessOnG1076" transform="matrix(1.0,0.0,0.0,1.0,10.0,11.18240740740741)"><text id="ProcessOnText1077" fill="#000000" font-size="13" x="71.06" y="13.325" font-family="微软雅黑" font-weight="normal" font-style="normal" text-decoration="none" family="微软雅黑" text-anchor="middle" size="13">onTouchEvent</text><text id="ProcessOnText1078" fill="#000000" font-size="13" x="71.06" y="29.575" font-family="微软雅黑" font-weight="normal" font-style="normal" text-decoration="none" family="微软雅黑" text-anchor="middle" size="13">消费 事件</text></g></g><g id="ProcessOnG1079"><path id="ProcessOnPath1080" d="M783.4206666666668 409.91666666666686L783.4206666666668 427.93287037037044L783.420666666667 427.93287037037044L783.420666666667 430.71300609657425" stroke="#323232" stroke-width="2.0" stroke-dasharray="none" fill="none" marker-end="url(#ProcessOnMarker1081)"/></g><g id="ProcessOnG1083"><path id="ProcessOnPath1084" d="M559.76 383.0768518518518L634.7876666666668 383.0768518518518L634.7876666666668 382.4842592592593L694.5792653558337 382.4842592592593" stroke="#323232" stroke-width="2.0" stroke-dasharray="none" fill="none" marker-end="url(#ProcessOnMarker1085)"/><g id="ProcessOnG1087" transform="matrix(1.0,0.0,0.0,1.0,627.465928974213,374.9518518518518)"><path id="ProcessOnPath1088" d="M0 0H13.0V16.25H0Z" fill="#fff" transform="matrix(1.0,0.0,0.0,1.0,-6.5,0.0)"/><text id="ProcessOnText1089" fill="#000000" font-size="13" x="0.0" y="13.325" font-family="微软雅黑" font-weight="normal" font-style="normal" text-decoration="none" family="微软雅黑" text-anchor="middle" size="13">否</text></g></g><g id="ProcessOnG1090" transform="matrix(1.0,0.0,0.0,1.0,432.94,445.949074074074)" opacity="1.0"><path id="ProcessOnPath1091" d="M0.0 0.0L164.12 0.0L164.12 54.86481481481482L0.0 54.86481481481482Z" stroke="#323232" stroke-width="2.0" stroke-dasharray="none" opacity="1.0" fill="#ffffff"/><g id="ProcessOnG1092" transform="matrix(1.0,0.0,0.0,1.0,10.0,11.18240740740741)"><text id="ProcessOnText1093" fill="#000000" font-size="13" x="71.06" y="13.325" font-family="微软雅黑" font-weight="normal" font-style="normal" text-decoration="none" family="微软雅黑" text-anchor="middle" size="13">onTouchEvent</text><text id="ProcessOnText1094" fill="#000000" font-size="13" x="71.06" y="29.575" font-family="微软雅黑" font-weight="normal" font-style="normal" text-decoration="none" family="微软雅黑" text-anchor="middle" size="13">消费 事件</text></g></g><g id="ProcessOnG1095"><path id="ProcessOnPath1096" d="M515.0 407.75462962962956L515.0 426.8518518518518L514.9999999999998 426.8518518518518L514.9999999999998 430.71300609657425" stroke="#323232" stroke-width="2.0" stroke-dasharray="none" fill="none" marker-end="url(#ProcessOnMarker1097)"/><g id="ProcessOnG1099" transform="matrix(1.0,0.0,0.0,1.0,515.0,411.108817863102)"><path id="ProcessOnPath1100" d="M0 0H13.0V16.25H0Z" fill="#fff" transform="matrix(1.0,0.0,0.0,1.0,-6.5,0.0)"/><text id="ProcessOnText1101" fill="#000000" font-size="13" x="0.0" y="13.325" font-family="微软雅黑" font-weight="normal" font-style="normal" text-decoration="none" family="微软雅黑" text-anchor="middle" size="13">是</text></g></g><g id="ProcessOnG1102"><path id="ProcessOnPath1103" d="M660.8153333333336 570.7097222222222L628.9376666666667 570.7097222222222L628.9376666666667 473.3814814814815L612.2960679774995 473.3814814814815" stroke="#323232" stroke-width="2.0" stroke-dasharray="none" fill="none" marker-end="url(#ProcessOnMarker1104)"/><g id="ProcessOnG1106" transform="matrix(1.0,0.0,0.0,1.0,628.9376666666667,521.5386358406017)"><path id="ProcessOnPath1107" d="M0 0H13.0V16.25H0Z" fill="#fff" transform="matrix(1.0,0.0,0.0,1.0,-6.5,0.0)"/><text id="ProcessOnText1108" fill="#000000" font-size="13" x="0.0" y="13.325" font-family="微软雅黑" font-weight="normal" font-style="normal" text-decoration="none" family="微软雅黑" text-anchor="middle" size="13">否</text></g></g><g id="ProcessOnG1109"><path id="ProcessOnPath1110" d="M783.4206666666668 500.8138888888889L783.4206666666668 522.6166666666667L701.6603333333336 522.6166666666667L701.6603333333336 529.1833764669447" stroke="#323232" stroke-width="2.0" stroke-dasharray="none" fill="none" marker-end="url(#ProcessOnMarker1111)"/></g><g id="ProcessOnG1113" transform="matrix(1.0,0.0,0.0,1.0,205.15600000000003,381.81388888888887)" opacity="1.0"><path id="ProcessOnPath1114" d="M10.801234567901247 0.0L106.42933333333332 0.0L95.62809876543207 32.40370370370374L0.0 32.40370370370374L10.801234567901247 0.0Z" stroke="#323232" stroke-width="2.0" stroke-dasharray="none" opacity="1.0" fill="#ffffff"/><g id="ProcessOnG1115" transform="matrix(1.0,0.0,0.0,1.0,15.964399999999998,-0.04814814814812962)"><text id="ProcessOnText1116" fill="#000000" font-size="13" x="36.25026666666666" y="13.325" font-family="微软雅黑" font-weight="normal" font-style="normal" text-decoration="none" family="微软雅黑" text-anchor="middle" size="13">移动手指 </text><text id="ProcessOnText1117" fill="#000000" font-size="13" x="36.25026666666666" y="29.575" font-family="微软雅黑" font-weight="normal" font-style="normal" text-decoration="none" family="微软雅黑" text-anchor="middle" size="13">move</text></g></g><g id="ProcessOnG1118" transform="matrix(1.0,0.0,0.0,1.0,205.15600000000003,524.0157407407407)" opacity="1.0"><path id="ProcessOnPath1119" d="M10.801234567901247 0.0L106.42933333333332 0.0L95.62809876543207 32.40370370370374L0.0 32.40370370370374L10.801234567901247 0.0Z" stroke="#323232" stroke-width="2.0" stroke-dasharray="none" opacity="1.0" fill="#ffffff"/><g id="ProcessOnG1120" transform="matrix(1.0,0.0,0.0,1.0,15.964399999999998,8.07685185185187)"><text id="ProcessOnText1121" fill="#000000" font-size="13" x="36.25026666666666" y="13.325" font-family="微软雅黑" font-weight="normal" font-style="normal" text-decoration="none" family="微软雅黑" text-anchor="middle" size="13">抬起手指 up</text></g></g><g id="ProcessOnG1122" transform="matrix(1.0,0.0,0.0,1.0,184.76533333333336,439.2972222222222)" opacity="1.0"><path id="ProcessOnPath1123" d="M0.0 0.0L147.21066666666667 0.0L147.21066666666667 54.86481481481482L0.0 54.86481481481482Z" stroke="#323232" stroke-width="2.0" stroke-dasharray="none" opacity="1.0" fill="#ffffff"/><g id="ProcessOnG1124" transform="matrix(1.0,0.0,0.0,1.0,10.0,11.18240740740741)"><text id="ProcessOnText1125" fill="#000000" font-size="13" x="62.605333333333334" y="13.325" font-family="微软雅黑" font-weight="normal" font-style="normal" text-decoration="none" family="微软雅黑" text-anchor="middle" size="13">dispatchTouchEvent</text><text id="ProcessOnText1126" fill="#000000" font-size="13" x="62.605333333333334" y="29.575" font-family="微软雅黑" font-weight="normal" font-style="normal" text-decoration="none" family="微软雅黑" text-anchor="middle" size="13">分发 move事件</text></g></g><g id="ProcessOnG1127" transform="matrix(1.0,0.0,0.0,1.0,184.76533333333336,575.4046296296297)" opacity="1.0"><path id="ProcessOnPath1128" d="M0.0 0.0L147.21066666666667 0.0L147.21066666666667 54.86481481481482L0.0 54.86481481481482Z" stroke="#323232" stroke-width="2.0" stroke-dasharray="none" opacity="1.0" fill="#ffffff"/><g id="ProcessOnG1129" transform="matrix(1.0,0.0,0.0,1.0,10.0,11.18240740740741)"><text id="ProcessOnText1130" fill="#000000" font-size="13" x="62.605333333333334" y="13.325" font-family="微软雅黑" font-weight="normal" font-style="normal" text-decoration="none" family="微软雅黑" text-anchor="middle" size="13">dispatchTouchEvent</text><text id="ProcessOnText1131" fill="#000000" font-size="13" x="62.605333333333334" y="29.575" font-family="微软雅黑" font-weight="normal" font-style="normal" text-decoration="none" family="微软雅黑" text-anchor="middle" size="13">分发 up事件</text></g></g><g id="ProcessOnG1132"><path id="ProcessOnPath1133" d="M258.37066666666664 414.21759259259255L258.37066666666664 426.75740740740724L258.3706666666667 426.75740740740724L258.3706666666667 427.75740740740724" stroke="#323232" stroke-width="2.0" stroke-dasharray="none" fill="none" marker-end="url(#ProcessOnMarker1134)"/></g><g id="ProcessOnG1136"><path id="ProcessOnPath1137" d="M258.3706666666667 556.4194444444445L258.3706666666667 565.9120370370371L258.3706666666667 565.9120370370371L258.3706666666667 566.9120370370371" stroke="#323232" stroke-width="2.0" stroke-dasharray="none" fill="none" marker-end="url(#ProcessOnMarker1138)"/></g><g id="ProcessOnG1140" transform="matrix(1.0,0.0,0.0,1.0,530.4549999999999,563.8483796296298)" opacity="1.0"><path id="ProcessOnPath1141" d="M0.0 23.86134259259245L37.04000000000002 0.0L74.08000000000004 23.86134259259245L37.04000000000002 47.7226851851849L0.0 23.86134259259245Z" stroke="#323232" stroke-width="2.0" stroke-dasharray="none" opacity="1.0" fill="#ffffff"/><g id="ProcessOnG1142" transform="matrix(1.0,0.0,0.0,1.0,10.0,7.61134259259245)"><text id="ProcessOnText1143" fill="#000000" font-size="13" x="26.04000000000002" y="13.325" font-family="微软雅黑" font-weight="normal" font-style="normal" text-decoration="none" family="微软雅黑" text-anchor="middle" size="13">消费了u</text><text id="ProcessOnText1144" fill="#000000" font-size="13" x="26.04000000000002" y="29.575" font-family="微软雅黑" font-weight="normal" font-style="normal" text-decoration="none" family="微软雅黑" text-anchor="middle" size="13">p事件</text></g></g><g id="ProcessOnG1145" transform="matrix(1.0,0.0,0.0,1.0,432.94,847.960185185185)" opacity="1.0"><path id="ProcessOnPath1146" d="M10.06728395061729 0.0L84.6927160493827 0.0C98.11576131687242 0.0 98.11576131687242 30.20185185185187 84.6927160493827 30.20185185185187L10.06728395061729 30.20185185185187C-3.35576131687243 30.20185185185187 -3.35576131687243 0.0 10.06728395061729 0.0Z" stroke="#323232" stroke-width="2.0" stroke-dasharray="none" opacity="1.0" fill="#ffffff"/><g id="ProcessOnG1147" transform="matrix(1.0,0.0,0.0,1.0,10.0,6.975925925925935)"><text id="ProcessOnText1148" fill="#000000" font-size="13" x="36.379999999999995" y="13.325" font-family="微软雅黑" font-weight="normal" font-style="normal" text-decoration="none" family="微软雅黑" text-anchor="middle" size="13">结束</text></g></g><g id="ProcessOnG1149"><path id="ProcessOnPath1150" d="M210.5566172839507 258.79814814814813L153.55661728395066 258.79814814814813L153.55661728395066 398.01574074074074L195.32054930645086 398.01574074074074" stroke="#323232" stroke-width="2.0" stroke-dasharray="none" fill="none" marker-end="url(#ProcessOnMarker1151)"/></g><g id="ProcessOnG1153"><path id="ProcessOnPath1154" d="M210.55661728395066 398.01574074074074L154.55661728395066 398.01574074074074L154.55661728395066 540.2175925925926L195.32054930645086 540.2175925925926" stroke="#323232" stroke-width="2.0" stroke-dasharray="none" fill="none" marker-end="url(#ProcessOnMarker1155)"/></g><g id="ProcessOnG1157"><path id="ProcessOnPath1158" d="M604.535 587.7097222222222L615.535 587.7097222222222L615.535 817.960185185185L480.32 817.960185185185L480.32 832.7241172076851" stroke="#323232" stroke-width="2.0" stroke-dasharray="none" fill="none" marker-end="url(#ProcessOnMarker1159)"/><g id="ProcessOnG1161" transform="matrix(1.0,0.0,0.0,1.0,615.535,764.1994197149537)"><path id="ProcessOnPath1162" d="M0 0H13.0V16.25H0Z" fill="#fff" transform="matrix(1.0,0.0,0.0,1.0,-6.5,0.0)"/><text id="ProcessOnText1163" fill="#000000" font-size="13" x="0.0" y="13.325" font-family="微软雅黑" font-weight="normal" font-style="normal" text-decoration="none" family="微软雅黑" text-anchor="middle" size="13">是</text></g></g><g id="ProcessOnG1164" transform="matrix(1.0,0.0,0.0,1.0,213.3706666666667,664.960185185185)" opacity="1.0"><path id="ProcessOnPath1165" d="M0.0 35.0L45.0 0.0L90.0 35.0L45.0 70.0L0.0 35.0Z" stroke="#323232" stroke-width="2.0" stroke-dasharray="none" opacity="1.0" fill="#ffffff"/><g id="ProcessOnG1166" transform="matrix(1.0,0.0,0.0,1.0,10.0,18.75)"><text id="ProcessOnText1167" fill="#000000" font-size="13" x="34.0" y="13.325" font-family="微软雅黑" font-weight="normal" font-style="normal" text-decoration="none" family="微软雅黑" text-anchor="middle" size="13">之前消费过</text><text id="ProcessOnText1168" fill="#000000" font-size="13" x="34.0" y="29.575" font-family="微软雅黑" font-weight="normal" font-style="normal" text-decoration="none" family="微软雅黑" text-anchor="middle" size="13">事件</text></g></g><g id="ProcessOnG1169"><path id="ProcessOnPath1170" d="M258.3706666666667 630.2694444444445L258.3706666666667 647.6148148148147L258.3706666666667 647.6148148148147L258.3706666666667 649.7241172076851" stroke="#323232" stroke-width="2.0" stroke-dasharray="none" fill="none" marker-end="url(#ProcessOnMarker1171)"/></g><g id="ProcessOnG1173"><path id="ProcessOnPath1174" d="M303.3706666666667 699.960185185185L372.38266666666675 699.960185185185L372.38266666666675 230.61944444444447L426.158598689167 230.61944444444447" stroke="#323232" stroke-width="2.0" stroke-dasharray="none" fill="none" marker-end="url(#ProcessOnMarker1175)"/><g id="ProcessOnG1177" transform="matrix(1.0,0.0,0.0,1.0,372.38266666666675,464.7828488035646)"><path id="ProcessOnPath1178" d="M0 0H13.0V16.25H0Z" fill="#fff" transform="matrix(1.0,0.0,0.0,1.0,-6.5,0.0)"/><text id="ProcessOnText1179" fill="#000000" font-size="13" x="0.0" y="13.325" font-family="微软雅黑" font-weight="normal" font-style="normal" text-decoration="none" family="微软雅黑" text-anchor="middle" size="13">是</text></g></g><g id="ProcessOnG1180" transform="matrix(1.0,0.0,0.0,1.0,184.76533333333336,766.4046296296297)" opacity="1.0"><path id="ProcessOnPath1181" d="M0.0 0.0L147.21066666666667 0.0L147.21066666666667 54.86481481481482L0.0 54.86481481481482Z" stroke="#323232" stroke-width="2.0" stroke-dasharray="none" opacity="1.0" fill="#ffffff"/><g id="ProcessOnG1182" transform="matrix(1.0,0.0,0.0,1.0,10.0,11.18240740740741)"><text id="ProcessOnText1183" fill="#000000" font-size="13" x="62.605333333333334" y="13.325" font-family="微软雅黑" font-weight="normal" font-style="normal" text-decoration="none" family="微软雅黑" text-anchor="middle" size="13">onTouchEvent</text><text id="ProcessOnText1184" fill="#000000" font-size="13" x="62.605333333333334" y="29.575" font-family="微软雅黑" font-weight="normal" font-style="normal" text-decoration="none" family="微软雅黑" text-anchor="middle" size="13">消费事件</text></g></g><g id="ProcessOnG1185"><path id="ProcessOnPath1186" d="M258.3706666666667 734.960185185185L258.3706666666667 750.6824074074073L258.3706666666667 750.6824074074073L258.3706666666667 751.1685616521298" stroke="#323232" stroke-width="2.0" stroke-dasharray="none" fill="none" marker-end="url(#ProcessOnMarker1187)"/><g id="ProcessOnG1189" transform="matrix(1.0,0.0,0.0,1.0,258.3706666666667,734.9393734186574)"><path id="ProcessOnPath1190" d="M0 0H13.0V16.25H0Z" fill="#fff" transform="matrix(1.0,0.0,0.0,1.0,-6.5,0.0)"/><text id="ProcessOnText1191" fill="#000000" font-size="13" x="0.0" y="13.325" font-family="微软雅黑" font-weight="normal" font-style="normal" text-decoration="none" family="微软雅黑" text-anchor="middle" size="13">否</text></g></g><g id="ProcessOnG1192"><path id="ProcessOnPath1193" d="M258.3706666666667 821.2694444444445L258.3706666666667 863.0611111111109L417.7039320225002 863.0611111111109" stroke="#323232" stroke-width="2.0" stroke-dasharray="none" fill="none" marker-end="url(#ProcessOnMarker1194)"/></g><g id="ProcessOnG1196"><path id="ProcessOnPath1197" d="M331.976 466.72962962962964L350.976 466.72962962962964L350.976 654.960185185185L258.3706666666667 654.960185185185L258.3706666666667 655.960185185185" stroke="#323232" stroke-width="2.0" stroke-dasharray="none" fill="none" marker-end="url(#ProcessOnMarker1198)"/></g><g id="ProcessOnG1200"><path id="ProcessOnPath1201" d="M425.46500000000003 587.7097222222222L378.7205 587.7097222222222L378.7205 793.837037037037L347.21206797749977 793.837037037037" stroke="#323232" stroke-width="2.0" stroke-dasharray="none" fill="none" marker-end="url(#ProcessOnMarker1202)"/><g id="ProcessOnG1204" transform="matrix(1.0,0.0,0.0,1.0,378.7205,675.0303456408798)"><path id="ProcessOnPath1205" d="M0 0H13.0V16.25H0Z" fill="#fff" transform="matrix(1.0,0.0,0.0,1.0,-6.5,0.0)"/><text id="ProcessOnText1206" fill="#000000" font-size="13" x="0.0" y="13.325" font-family="微软雅黑" font-weight="normal" font-style="normal" text-decoration="none" family="微软雅黑" text-anchor="middle" size="13">否</text></g></g><g id="ProcessOnG1207" transform="matrix(1.0,0.0,0.0,1.0,425.46500000000003,561.4194444444445)" opacity="1.0"><path id="ProcessOnPath1208" d="M0.0 26.29027777777776L40.84499999999997 0.0L81.68999999999994 26.29027777777776L40.84499999999997 52.58055555555552L0.0 26.29027777777776Z" stroke="#323232" stroke-width="2.0" stroke-dasharray="none" opacity="1.0" fill="#ffffff"/><g id="ProcessOnG1209" transform="matrix(1.0,0.0,0.0,1.0,10.0,10.04027777777776)"><text id="ProcessOnText1210" fill="#000000" font-size="13" x="29.84499999999997" y="13.325" font-family="微软雅黑" font-weight="normal" font-style="normal" text-decoration="none" family="微软雅黑" text-anchor="middle" size="13">消费了do</text><text id="ProcessOnText1211" fill="#000000" font-size="13" x="29.84499999999997" y="29.575" font-family="微软雅黑" font-weight="normal" font-style="normal" text-decoration="none" family="微软雅黑" text-anchor="middle" size="13">wn事件</text></g></g><g id="ProcessOnG1212"><path id="ProcessOnPath1213" d="M515.0 500.81388888888887L515.0 531.1166666666667L466.30999999999995 531.1166666666667L466.30999999999995 546.1833764669447" stroke="#323232" stroke-width="2.0" stroke-dasharray="none" fill="none" marker-end="url(#ProcessOnMarker1214)"/></g><g id="ProcessOnG1216"><path id="ProcessOnPath1217" d="M507.155 587.7097222222222L518.805 587.7097222222222L518.805 587.7097222222222L519.805 587.7097222222222" stroke="#323232" stroke-width="2.0" stroke-dasharray="none" fill="none" marker-end="url(#ProcessOnMarker1218)"/><g id="ProcessOnG1220" transform="matrix(1.0,0.0,0.0,1.0,513.48,579.5847222222222)"><path id="ProcessOnPath1221" d="M0 0H13.0V16.25H0Z" fill="#fff" transform="matrix(1.0,0.0,0.0,1.0,-6.5,0.0)"/><text id="ProcessOnText1222" fill="#000000" font-size="13" x="0.0" y="13.325" font-family="微软雅黑" font-weight="normal" font-style="normal" text-decoration="none" family="微软雅黑" text-anchor="middle" size="13">否</text></g></g><g id="ProcessOnG1223" transform="matrix(1.0,0.0,0.0,1.0,425.81000000000006,654.0)" opacity="1.0"><path id="ProcessOnPath1224" d="M11.0 0.0L69.99999999999994 0.0C84.66666666666661 0.0 84.66666666666661 33.0 69.99999999999994 33.0L11.0 33.0C-3.6666666666666665 33.0 -3.6666666666666665 0.0 11.0 0.0Z" stroke="#323232" stroke-width="2.0" stroke-dasharray="none" opacity="1.0" fill="#ffffff"/><g id="ProcessOnG1225" transform="matrix(1.0,0.0,0.0,1.0,10.0,0.25)"><text id="ProcessOnText1226" fill="#000000" font-size="13" x="29.49999999999997" y="13.325" font-family="微软雅黑" font-weight="normal" font-style="normal" text-decoration="none" family="微软雅黑" text-anchor="middle" size="13">等待下次</text><text id="ProcessOnText1227" fill="#000000" font-size="13" x="29.49999999999997" y="29.575" font-family="微软雅黑" font-weight="normal" font-style="normal" text-decoration="none" family="微软雅黑" text-anchor="middle" size="13">事件分发</text></g></g><g id="ProcessOnG1228"><path id="ProcessOnPath1229" d="M466.31 614.0L466.31 634.0L466.31 634.0L466.31 638.7639320225002" stroke="#323232" stroke-width="2.0" stroke-dasharray="none" fill="none" marker-end="url(#ProcessOnMarker1230)"/><g id="ProcessOnG1232" transform="matrix(1.0,0.0,0.0,1.0,466.31,618.2569660112501)"><path id="ProcessOnPath1233" d="M0 0H13.0V16.25H0Z" fill="#fff" transform="matrix(1.0,0.0,0.0,1.0,-6.5,0.0)"/><text id="ProcessOnText1234" fill="#000000" font-size="13" x="0.0" y="13.325" font-family="微软雅黑" font-weight="normal" font-style="normal" text-decoration="none" family="微软雅黑" text-anchor="middle" size="13">是</text></g></g><g id="ProcessOnG1235"><path id="ProcessOnPath1236" d="M567.4949999999999 611.5710648148147L567.4949999999999 670.5L522.0460679774998 670.5" stroke="#323232" stroke-width="2.0" stroke-dasharray="none" fill="none" marker-end="url(#ProcessOnMarker1237)"/><g id="ProcessOnG1239" transform="matrix(1.0,0.0,0.0,1.0,567.4949999999999,655.6349984186575)"><path id="ProcessOnPath1240" d="M0 0H13.0V16.25H0Z" fill="#fff" transform="matrix(1.0,0.0,0.0,1.0,-6.5,0.0)"/><text id="ProcessOnText1241" fill="#000000" font-size="13" x="0.0" y="13.325" font-family="微软雅黑" font-weight="normal" font-style="normal" text-decoration="none" family="微软雅黑" text-anchor="middle" size="13">否</text></g></g><g id="ProcessOnG1242" transform="matrix(1.0,0.0,0.0,1.0,772.455,546.8483796296298)" opacity="1.0"><path id="ProcessOnPath1243" d="M0.0 23.86134259259245L37.04000000000002 0.0L74.08000000000004 23.86134259259245L37.04000000000002 47.7226851851849L0.0 23.86134259259245Z" stroke="#323232" stroke-width="2.0" stroke-dasharray="none" opacity="1.0" fill="#ffffff"/><g id="ProcessOnG1244" transform="matrix(1.0,0.0,0.0,1.0,10.0,7.61134259259245)"><text id="ProcessOnText1245" fill="#000000" font-size="13" x="26.04000000000002" y="13.325" font-family="微软雅黑" font-weight="normal" font-style="normal" text-decoration="none" family="微软雅黑" text-anchor="middle" size="13">消费了u</text><text id="ProcessOnText1246" fill="#000000" font-size="13" x="26.04000000000002" y="29.575" font-family="微软雅黑" font-weight="normal" font-style="normal" text-decoration="none" family="微软雅黑" text-anchor="middle" size="13">p事件</text></g></g><g id="ProcessOnG1247" transform="matrix(1.0,0.0,0.0,1.0,660.8153333333336,544.4194444444445)" opacity="1.0"><path id="ProcessOnPath1248" d="M0.0 26.29027777777776L40.84499999999997 0.0L81.68999999999994 26.29027777777776L40.84499999999997 52.58055555555552L0.0 26.29027777777776Z" stroke="#323232" stroke-width="2.0" stroke-dasharray="none" opacity="1.0" fill="#ffffff"/><g id="ProcessOnG1249" transform="matrix(1.0,0.0,0.0,1.0,10.0,10.04027777777776)"><text id="ProcessOnText1250" fill="#000000" font-size="13" x="29.84499999999997" y="13.325" font-family="微软雅黑" font-weight="normal" font-style="normal" text-decoration="none" family="微软雅黑" text-anchor="middle" size="13">消费了do</text><text id="ProcessOnText1251" fill="#000000" font-size="13" x="29.84499999999997" y="29.575" font-family="微软雅黑" font-weight="normal" font-style="normal" text-decoration="none" family="微软雅黑" text-anchor="middle" size="13">wn事件</text></g></g><g id="ProcessOnG1252"><path id="ProcessOnPath1253" d="M742.5053333333336 570.7097222222222L757.4801666666668 570.7097222222222L757.4801666666668 570.7097222222222L758.4801666666668 570.7097222222222" stroke="#323232" stroke-width="2.0" stroke-dasharray="none" fill="none" marker-end="url(#ProcessOnMarker1254)"/><g id="ProcessOnG1256" transform="matrix(1.0,0.0,0.0,1.0,750.4927500000002,562.5847222222222)"><path id="ProcessOnPath1257" d="M0 0H13.0V16.25H0Z" fill="#fff" transform="matrix(1.0,0.0,0.0,1.0,-6.5,0.0)"/><text id="ProcessOnText1258" fill="#000000" font-size="13" x="0.0" y="13.325" font-family="微软雅黑" font-weight="normal" font-style="normal" text-decoration="none" family="微软雅黑" text-anchor="middle" size="13">否</text></g></g><g id="ProcessOnG1259" transform="matrix(1.0,0.0,0.0,1.0,661.1603333333336,639.0)" opacity="1.0"><path id="ProcessOnPath1260" d="M11.0 0.0L69.99999999999994 0.0C84.66666666666661 0.0 84.66666666666661 33.0 69.99999999999994 33.0L11.0 33.0C-3.6666666666666665 33.0 -3.6666666666666665 0.0 11.0 0.0Z" stroke="#323232" stroke-width="2.0" stroke-dasharray="none" opacity="1.0" fill="#ffffff"/><g id="ProcessOnG1261" transform="matrix(1.0,0.0,0.0,1.0,10.0,0.25)"><text id="ProcessOnText1262" fill="#000000" font-size="13" x="29.49999999999997" y="13.325" font-family="微软雅黑" font-weight="normal" font-style="normal" text-decoration="none" family="微软雅黑" text-anchor="middle" size="13">等待下次</text><text id="ProcessOnText1263" fill="#000000" font-size="13" x="29.49999999999997" y="29.575" font-family="微软雅黑" font-weight="normal" font-style="normal" text-decoration="none" family="微软雅黑" text-anchor="middle" size="13">事件分发</text></g></g><g id="ProcessOnG1264"><path id="ProcessOnPath1265" d="M701.6603333333336 597.0L701.6603333333336 618.0L701.6603333333336 618.0L701.6603333333336 623.7639320225002" stroke="#323232" stroke-width="2.0" stroke-dasharray="none" fill="none" marker-end="url(#ProcessOnMarker1266)"/><g id="ProcessOnG1268" transform="matrix(1.0,0.0,0.0,1.0,701.6603333333336,602.2569660112501)"><path id="ProcessOnPath1269" d="M0 0H13.0V16.25H0Z" fill="#fff" transform="matrix(1.0,0.0,0.0,1.0,-6.5,0.0)"/><text id="ProcessOnText1270" fill="#000000" font-size="13" x="0.0" y="13.325" font-family="微软雅黑" font-weight="normal" font-style="normal" text-decoration="none" family="微软雅黑" text-anchor="middle" size="13">是</text></g></g><g id="ProcessOnG1271"><path id="ProcessOnPath1272" d="M809.495 594.5710648148147L809.495 655.5L757.3964013108334 655.5" stroke="#323232" stroke-width="2.0" stroke-dasharray="none" fill="none" marker-end="url(#ProcessOnMarker1273)"/><g id="ProcessOnG1275" transform="matrix(1.0,0.0,0.0,1.0,809.495,642.9598317519906)"><path id="ProcessOnPath1276" d="M0 0H13.0V16.25H0Z" fill="#fff" transform="matrix(1.0,0.0,0.0,1.0,-6.5,0.0)"/><text id="ProcessOnText1277" fill="#000000" font-size="13" x="0.0" y="13.325" font-family="微软雅黑" font-weight="normal" font-style="normal" text-decoration="none" family="微软雅黑" text-anchor="middle" size="13">否</text></g></g><g id="ProcessOnG1278"><path id="ProcessOnPath1279" d="M846.5350000000001 570.7097222222222L876.5350000000001 570.7097222222222L876.5350000000001 863.0611111111109L542.9360679774996 863.0611111111109" stroke="#323232" stroke-width="2.0" stroke-dasharray="none" fill="none" marker-end="url(#ProcessOnMarker1280)"/><g id="ProcessOnG1282" transform="matrix(1.0,0.0,0.0,1.0,870.9112284331942,854.9361111111109)"><path id="ProcessOnPath1283" d="M0 0H13.0V16.25H0Z" fill="#fff" transform="matrix(1.0,0.0,0.0,1.0,-6.5,0.0)"/><text id="ProcessOnText1284" fill="#000000" font-size="13" x="0.0" y="13.325" font-family="微软雅黑" font-weight="normal" font-style="normal" text-decoration="none" family="微软雅黑" text-anchor="middle" size="13">是</text></g></g></g></g></svg>